<svg xmlns="http://www.w3.org/2000/svg" viewBox="0 0 144 144" width="144" height="144">
  <rect x="4" y="4" width="136" height="136" rx="12" fill="#212529" stroke="#e20613" stroke-width="2"/>
  <rect x="8" y="8" width="128" height="128" rx="10" fill="none" stroke="#2d3238" stroke-width="1"/>
  <!-- Almond eye shape -->
  <path d="M36,64 Q62,36 92,64 Q62,92 36,64 Z" fill="none" stroke="#ffffff" stroke-width="2.5" stroke-linejoin="round"/>
  <!-- Outer iris ring -->
  <circle cx="68" cy="64" r="12" fill="none" stroke="#ffffff" stroke-width="1.5"/>
  <!-- Iris with gradient feel -->
  <circle cx="68" cy="64" r="10" fill="#4a9eff" opacity="0.3"/>
  <!-- Pupil looking right -->
  <circle cx="72" cy="64" r="6" fill="#ffffff"/>
  <circle cx="74" cy="63" r="2" fill="#212529"/>
  <!-- Bold right arrow -->
  <polygon points="122,64 106,48 106,57 94,57 94,71 106,71 106,80" fill="#4a9eff"/>
  <polygon points="122,64 106,48 106,57 94,57 94,71 106,71 106,80" fill="none" stroke="#4a9eff" stroke-width="0.5" opacity="0.6"/>
  <!-- Arrow highlight -->
  <line x1="106" y1="52" x2="106" y2="57" stroke="#7bbfff" stroke-width="1" opacity="0.5"/>

  <text x="72" y="126" text-anchor="middle" font-family="Arial,Helvetica,sans-serif" font-size="16" font-weight="bold" fill="white">LOOK R</text>
</svg>