<svg xmlns="http://www.w3.org/2000/svg" viewBox="0 0 144 144" width="144" height="144">
  <rect x="4" y="4" width="136" height="136" rx="12" fill="#212529" stroke="#e20613" stroke-width="2"/>
  <rect x="8" y="8" width="128" height="128" rx="10" fill="none" stroke="#2d3238" stroke-width="1"/>
  <!-- Almond eye shape -->
  <path d="M52,64 Q78,36 108,64 Q78,92 52,64 Z" fill="none" stroke="#ffffff" stroke-width="2.5" stroke-linejoin="round"/>
  <!-- Outer iris ring -->
  <circle cx="76" cy="64" r="12" fill="none" stroke="#ffffff" stroke-width="1.5"/>
  <!-- Iris with gradient feel -->
  <circle cx="76" cy="64" r="10" fill="#4a9eff" opacity="0.3"/>
  <!-- Pupil looking left -->
  <circle cx="72" cy="64" r="6" fill="#ffffff"/>
  <circle cx="70" cy="63" r="2" fill="#212529"/>
  <!-- Bold left arrow -->
  <polygon points="22,64 38,48 38,57 50,57 50,71 38,71 38,80" fill="#4a9eff"/>
  <polygon points="22,64 38,48 38,57 50,57 50,71 38,71 38,80" fill="none" stroke="#4a9eff" stroke-width="0.5" opacity="0.6"/>
  <!-- Arrow highlight -->
  <line x1="38" y1="52" x2="38" y2="57" stroke="#7bbfff" stroke-width="1" opacity="0.5"/>

  <text x="72" y="126" text-anchor="middle" font-family="Arial,Helvetica,sans-serif" font-size="16" font-weight="bold" fill="white">LOOK L</text>
</svg>