<svg xmlns="http://www.w3.org/2000/svg" viewBox="0 0 144 144" width="144" height="144">
  <rect x="4" y="4" width="136" height="136" rx="12" fill="#212529" stroke="#e20613" stroke-width="2"/>
  <rect x="8" y="8" width="128" height="128" rx="10" fill="none" stroke="#2d3238" stroke-width="1"/>
  <!-- Circular recycling arrow -->
  <path d="M72 20 A40 40 0 1 1 32 60" fill="none" stroke="white" stroke-width="3" stroke-linecap="round" opacity="0.85"/>
  <!-- Second arc segment for recycling feel -->
  <path d="M72 100 A40 40 0 0 1 32 60" fill="none" stroke="white" stroke-width="3" stroke-linecap="round" opacity="0.5"/>
  <!-- Arrow head on circular arrow -->
  <polygon points="32,48 24,66 42,62" fill="white" opacity="0.85"/>
  <!-- Second arrow head -->
  <polygon points="82,20 72,16 72,24" fill="white" opacity="0.5"/>
  <!-- Lightning bolt shadow offset -->
  <polygon points="80,30 60,58 74,58 64,96 86,58 72,58 80,30" fill="#ccb800" transform="translate(2,2)"/>
  <!-- Lightning bolt main -->
  <polygon points="80,30 60,58 74,58 64,96 86,58 72,58 80,30" fill="#fff300"/>
  <!-- Lightning bolt highlight -->
  <polygon points="78,34 66,54 74,54 72,60 82,54 74,54 78,34" fill="white" opacity="0.25"/>

  <text x="72" y="126" text-anchor="middle" font-family="Arial,Helvetica,sans-serif" font-size="16" font-weight="bold" fill="white">KERS</text>
</svg>