<svg xmlns="http://www.w3.org/2000/svg" viewBox="0 0 144 144" width="144" height="144">
  <defs>
    <radialGradient id="on-bg" cx="50%" cy="40%" r="70%">
      <stop offset="0%" stop-color="#3d3520"/>
      <stop offset="100%" stop-color="#1a1508"/>
    </radialGradient>
    <!-- Intense warm glow flooding the background -->
    <radialGradient id="on-flood" cx="60%" cy="50%" r="80%">
      <stop offset="0%" stop-color="#FFD54F" stop-opacity="0.45"/>
      <stop offset="40%" stop-color="#FFD54F" stop-opacity="0.2"/>
      <stop offset="100%" stop-color="#FFD54F" stop-opacity="0"/>
    </radialGradient>
    <!-- Bright beam gradient -->
    <linearGradient id="on-beam" x1="0" y1="0" x2="1" y2="0">
      <stop offset="0%" stop-color="#FFFFFF" stop-opacity="1"/>
      <stop offset="20%" stop-color="#FFF9C4" stop-opacity="0.95"/>
      <stop offset="100%" stop-color="#FFD54F" stop-opacity="0.3"/>
    </linearGradient>
    <!-- Housing lit up -->
    <linearGradient id="on-housing" x1="0" y1="0" x2="0" y2="1">
      <stop offset="0%" stop-color="#ffffff"/>
      <stop offset="50%" stop-color="#FFF9C4"/>
      <stop offset="100%" stop-color="#FFD54F"/>
    </linearGradient>
    <!-- Lens bright -->
    <linearGradient id="on-lens" x1="0" y1="0" x2="0" y2="1">
      <stop offset="0%" stop-color="#FFFFFF"/>
      <stop offset="100%" stop-color="#FFE082"/>
    </linearGradient>
    <!-- Intense glow filter -->
    <filter id="on-glow" x="-50%" y="-50%" width="200%" height="200%">
      <feGaussianBlur in="SourceGraphic" stdDeviation="5" result="blur"/>
      <feMerge>
        <feMergeNode in="blur"/>
        <feMergeNode in="blur"/>
        <feMergeNode in="SourceGraphic"/>
      </feMerge>
    </filter>
    <!-- Wide beam blur -->
    <filter id="on-beamBlur" x="-10%" y="-30%" width="140%" height="160%">
      <feGaussianBlur in="SourceGraphic" stdDeviation="4"/>
    </filter>
    <!-- Housing glow -->
    <filter id="on-housingGlow" x="-30%" y="-30%" width="160%" height="160%">
      <feDropShadow dx="0" dy="0" stdDeviation="8" flood-color="#FFD54F" flood-opacity="0.7"/>
    </filter>
    <!-- Bottom accent bright -->
    <linearGradient id="on-accent" x1="0" y1="0" x2="1" y2="0">
      <stop offset="0%" stop-color="#FFD54F" stop-opacity="0"/>
      <stop offset="50%" stop-color="#FFD54F" stop-opacity="1"/>
      <stop offset="100%" stop-color="#FFD54F" stop-opacity="0"/>
    </linearGradient>
  </defs>

  <!-- Warm background -->
  <rect width="144" height="144" fill="url(#on-bg)"/>

  <!-- Intense flood glow -->
  <ellipse cx="85" cy="60" rx="70" ry="55" fill="url(#on-flood)"/>

  <!-- Wide bright beams -->
  <g filter="url(#on-beamBlur)" opacity="0.9">
    <polygon points="55,45 130,20 130,35 55,52" fill="url(#on-beam)"/>
    <polygon points="55,52 135,42 135,55 55,60" fill="url(#on-beam)"/>
    <polygon points="55,60 138,58 138,72 55,70" fill="url(#on-beam)"/>
    <polygon points="55,70 135,78 135,92 55,78" fill="url(#on-beam)"/>
    <polygon points="55,78 130,96 130,112 55,86" fill="url(#on-beam)"/>
  </g>

  <!-- Sharp bright beam lines -->
  <g filter="url(#on-glow)" opacity="0.9">
    <line x1="55" y1="48" x2="130" y2="28" stroke="#FFFFFF" stroke-width="2" stroke-linecap="round"/>
    <line x1="55" y1="55" x2="134" y2="48" stroke="#FFFFFF" stroke-width="2" stroke-linecap="round"/>
    <line x1="55" y1="65" x2="136" y2="65" stroke="#FFFFFF" stroke-width="2.5" stroke-linecap="round"/>
    <line x1="55" y1="75" x2="134" y2="82" stroke="#FFFFFF" stroke-width="2" stroke-linecap="round"/>
    <line x1="55" y1="82" x2="130" y2="102" stroke="#FFFFFF" stroke-width="2" stroke-linecap="round"/>
  </g>

  <!-- Glowing headlight housing -->
  <g filter="url(#on-housingGlow)">
    <path d="M24 42 Q24 30 36 30 L48 30 Q54 30 54 40 L54 90 Q54 100 48 100 L36 100 Q24 100 24 88 Z" fill="url(#on-housing)"/>
    <path d="M48 35 Q54 35 54 42 L54 88 Q54 95 48 95 L48 35 Z" fill="url(#on-lens)"/>
  </g>

  <!-- Bright center point on lens -->
  <ellipse cx="52" cy="65" rx="6" ry="18" fill="#FFFFFF" opacity="0.6"/>

  <!-- Bottom accent line (bright) -->
  <rect x="10" y="137" width="124" height="3" rx="1.5" fill="url(#on-accent)"/>

  <!-- Label with glow -->
  <text x="72" y="132" text-anchor="middle" font-family="'Segoe UI', Arial, sans-serif" font-size="24" font-weight="700" fill="#FFD54F" letter-spacing="1">ON</text>
</svg>
