<svg xmlns="http://www.w3.org/2000/svg" viewBox="0 0 144 144" width="144" height="144">
  <defs>
    <radialGradient id="bg" cx="50%" cy="40%" r="70%">
      <stop offset="0%" stop-color="#32373C"/>
      <stop offset="100%" stop-color="#0a0a0f"/>
    </radialGradient>
    <radialGradient id="screenGlow" cx="50%" cy="42%" r="35%">
      <stop offset="0%" stop-color="#FF1D43" stop-opacity="0.12"/>
      <stop offset="100%" stop-color="#FF1D43" stop-opacity="0"/>
    </radialGradient>
    <linearGradient id="monitorGrad" x1="0" y1="0" x2="0" y2="1">
      <stop offset="0%" stop-color="#e0e0e0"/>
      <stop offset="100%" stop-color="#888888"/>
    </linearGradient>
    <linearGradient id="screenBg" x1="0" y1="0" x2="0" y2="1">
      <stop offset="0%" stop-color="#1a1a2e"/>
      <stop offset="100%" stop-color="#12121f"/>
    </linearGradient>
    <filter id="glow" x="-30%" y="-30%" width="160%" height="160%">
      <feGaussianBlur in="SourceGraphic" stdDeviation="2" result="blur"/>
      <feMerge><feMergeNode in="blur"/><feMergeNode in="SourceGraphic"/></feMerge>
    </filter>
    <filter id="shadow" x="-10%" y="-10%" width="130%" height="130%">
      <feDropShadow dx="0" dy="2" stdDeviation="3" flood-color="#000" flood-opacity="0.5"/>
    </filter>
    <linearGradient id="borderAccent" x1="0" y1="0" x2="1" y2="0">
      <stop offset="0%" stop-color="#FF1D43" stop-opacity="0"/>
      <stop offset="50%" stop-color="#FF1D43" stop-opacity="0.6"/>
      <stop offset="100%" stop-color="#FF1D43" stop-opacity="0"/>
    </linearGradient>
  </defs>
  <rect width="144" height="144" fill="url(#bg)"/>
  <ellipse cx="72" cy="50" rx="45" ry="35" fill="url(#screenGlow)"/>
  <!-- Monitor -->
  <g filter="url(#shadow)">
    <rect x="28" y="24" width="88" height="64" rx="5" fill="none" stroke="url(#monitorGrad)" stroke-width="3"/>
    <rect x="33" y="29" width="78" height="54" rx="3" fill="url(#screenBg)"/>
    <!-- Stand -->
    <line x1="72" y1="88" x2="72" y2="100" stroke="url(#monitorGrad)" stroke-width="3" stroke-linecap="round"/>
    <line x1="56" y1="100" x2="88" y2="100" stroke="url(#monitorGrad)" stroke-width="3" stroke-linecap="round"/>
  </g>
  <!-- Minus/decrease on screen -->
  <g filter="url(#glow)">
    <path d="M52 56 L64 56 M58 50 L52 56 L58 62" fill="none" stroke="#FF4D6A" stroke-width="3" stroke-linecap="round" stroke-linejoin="round"/>
    <line x1="70" y1="56" x2="90" y2="56" stroke="#FF4D6A" stroke-width="4" stroke-linecap="round"/>
  </g>
  <rect x="20" y="138" width="104" height="2" rx="1" fill="url(#borderAccent)"/>
  <text x="72" y="132" text-anchor="middle" font-family="'Segoe UI', Arial, sans-serif" font-size="22" font-weight="700" fill="#ffffff" opacity="0.85" letter-spacing="1">DECREASE</text>
</svg>