<svg xmlns="http://www.w3.org/2000/svg" viewBox="0 0 144 144" width="144" height="144">
  <defs>
    <radialGradient id="bg" cx="50%" cy="40%" r="70%">
      <stop offset="0%" stop-color="#32373C"/>
      <stop offset="100%" stop-color="#0a0a0f"/>
    </radialGradient>
    <radialGradient id="greenGlow" cx="50%" cy="45%" r="40%">
      <stop offset="0%" stop-color="#4CAF50" stop-opacity="0.22"/>
      <stop offset="100%" stop-color="#4CAF50" stop-opacity="0"/>
    </radialGradient>
    <linearGradient id="greenGrad" x1="0" y1="0" x2="0" y2="1">
      <stop offset="0%" stop-color="#81C784"/>
      <stop offset="100%" stop-color="#4CAF50"/>
    </linearGradient>
    <linearGradient id="boltGrad" x1="0" y1="0" x2="0" y2="1">
      <stop offset="0%" stop-color="#ffffff"/>
      <stop offset="100%" stop-color="#e0e0e0"/>
    </linearGradient>
    <filter id="glow" x="-30%" y="-30%" width="160%" height="160%">
      <feGaussianBlur in="SourceGraphic" stdDeviation="2.5" result="blur"/>
      <feMerge><feMergeNode in="blur"/><feMergeNode in="SourceGraphic"/></feMerge>
    </filter>
    <filter id="shadow" x="-10%" y="-10%" width="130%" height="130%">
      <feDropShadow dx="0" dy="2" stdDeviation="3" flood-color="#000" flood-opacity="0.4"/>
    </filter>
    <linearGradient id="borderAccent" x1="0" y1="0" x2="1" y2="0">
      <stop offset="0%" stop-color="#4CAF50" stop-opacity="0"/>
      <stop offset="50%" stop-color="#4CAF50" stop-opacity="0.8"/>
      <stop offset="100%" stop-color="#4CAF50" stop-opacity="0"/>
    </linearGradient>
  </defs>
  <rect width="144" height="144" fill="url(#bg)"/>
  <ellipse cx="72" cy="56" rx="48" ry="42" fill="url(#greenGlow)"/>
  <!-- Circular arrow -->
  <g filter="url(#glow)">
    <path d="M99 50 A32 32 0 1 0 82 90" fill="none" stroke="url(#greenGrad)" stroke-width="5" stroke-linecap="round"/>
    <!-- Arrow head -->
    <polygon points="82,80 89,93 75,93" fill="url(#greenGrad)"/>
  </g>
  <!-- Lightning bolt in center -->
  <g filter="url(#shadow)">
    <polygon points="78,34 64,62 74,62 66,90 86,55 76,55" fill="url(#boltGrad)"/>
  </g>
  <!-- Subtle energy rings -->
  <circle cx="72" cy="62" r="38" fill="none" stroke="#4CAF50" stroke-width="0.6" opacity="0.15"/>
  <rect x="20" y="138" width="104" height="2" rx="1" fill="url(#borderAccent)"/>
  <text x="72" y="132" text-anchor="middle" font-family="'Segoe UI', Arial, sans-serif" font-size="22" font-weight="700" fill="#ffffff" opacity="0.85" letter-spacing="1">STARTER</text>
</svg>