<svg xmlns="http://www.w3.org/2000/svg" viewBox="0 0 144 144" width="144" height="144">
  <defs>
    <radialGradient id="bg" cx="50%" cy="40%" r="70%">
      <stop offset="0%" stop-color="#32373C"/>
      <stop offset="100%" stop-color="#0a0a0f"/>
    </radialGradient>
    <radialGradient id="silverGlow" cx="50%" cy="45%" r="40%">
      <stop offset="0%" stop-color="#90CAF9" stop-opacity="0.18"/>
      <stop offset="100%" stop-color="#90CAF9" stop-opacity="0"/>
    </radialGradient>
    <linearGradient id="fovGrad" x1="0" y1="0" x2="0" y2="1">
      <stop offset="0%" stop-color="#B0D4F1"/>
      <stop offset="100%" stop-color="#90CAF9"/>
    </linearGradient>
    <filter id="glow" x="-30%" y="-30%" width="160%" height="160%">
      <feGaussianBlur in="SourceGraphic" stdDeviation="2.5" result="blur"/>
      <feMerge><feMergeNode in="blur"/><feMergeNode in="SourceGraphic"/></feMerge>
    </filter>
    <filter id="shadow" x="-10%" y="-10%" width="130%" height="130%">
      <feDropShadow dx="0" dy="2" stdDeviation="3" flood-color="#000" flood-opacity="0.5"/>
    </filter>
    <linearGradient id="borderAccent" x1="0" y1="0" x2="1" y2="0">
      <stop offset="0%" stop-color="#90CAF9" stop-opacity="0"/>
      <stop offset="50%" stop-color="#90CAF9" stop-opacity="0.8"/>
      <stop offset="100%" stop-color="#90CAF9" stop-opacity="0"/>
    </linearGradient>
  </defs>
  <rect width="144" height="144" fill="url(#bg)"/>
  <ellipse cx="72" cy="52" rx="48" ry="40" fill="url(#silverGlow)"/>
  <!-- Eye shape -->
  <g filter="url(#shadow)">
    <path d="M24 55 Q72 20 120 55 Q72 90 24 55 Z" fill="none" stroke="url(#fovGrad)" stroke-width="2.5" stroke-linejoin="round"/>
    <!-- Iris -->
    <circle cx="72" cy="55" r="14" fill="none" stroke="url(#fovGrad)" stroke-width="2"/>
    <!-- Pupil -->
    <circle cx="72" cy="55" r="6" fill="url(#fovGrad)" opacity="0.5"/>
    <!-- Highlight -->
    <circle cx="68" cy="51" r="2.5" fill="#ffffff" opacity="0.6"/>
  </g>
  <!-- Wide angle lines spreading outward -->
  <g filter="url(#glow)" opacity="0.7">
    <line x1="20" y1="30" x2="36" y2="42" stroke="#ffffff" stroke-width="2" stroke-linecap="round"/>
    <line x1="124" y1="30" x2="108" y2="42" stroke="#ffffff" stroke-width="2" stroke-linecap="round"/>
    <line x1="20" y1="80" x2="36" y2="68" stroke="#ffffff" stroke-width="2" stroke-linecap="round"/>
    <line x1="124" y1="80" x2="108" y2="68" stroke="#ffffff" stroke-width="2" stroke-linecap="round"/>
  </g>
  <!-- Plus symbol -->
  <g filter="url(#glow)">
    <line x1="104" y1="88" x2="104" y2="104" stroke="#ffffff" stroke-width="3" stroke-linecap="round"/>
    <line x1="96" y1="96" x2="112" y2="96" stroke="#ffffff" stroke-width="3" stroke-linecap="round"/>
  </g>
  <rect x="20" y="138" width="104" height="2" rx="1" fill="url(#borderAccent)"/>
  <text x="72" y="132" text-anchor="middle" font-family="'Segoe UI', Arial, sans-serif" font-size="24" font-weight="700" fill="#ffffff" opacity="0.85" letter-spacing="1">FOV +</text>
</svg>