<svg xmlns="http://www.w3.org/2000/svg" viewBox="0 0 144 144" width="144" height="144">
  <rect width="144" height="144" fill="#1a1a2e"/>
  <!-- Headlight housing -->
  <path d="M28 48 Q28 33 43 33 L53 33 Q58 33 58 43 L58 83 Q58 93 53 93 L43 93 Q28 93 28 78 Z" fill="#ffffff" opacity="0.9"/>
  <!-- Light beams -->
  <line x1="60" y1="50" x2="95" y2="44" stroke="#ffd700" stroke-width="3" stroke-linecap="round"/>
  <line x1="60" y1="63" x2="98" y2="58" stroke="#ffd700" stroke-width="3" stroke-linecap="round"/>
  <line x1="60" y1="75" x2="98" y2="78" stroke="#ffd700" stroke-width="3" stroke-linecap="round"/>
  <line x1="60" y1="88" x2="95" y2="92" stroke="#ffd700" stroke-width="3" stroke-linecap="round"/>
  <!-- Flash radiating lines -->
  <line x1="100" y1="35" x2="118" y2="25" stroke="#ffd700" stroke-width="2.5" stroke-linecap="round" opacity="0.9"/>
  <line x1="105" y1="50" x2="122" y2="48" stroke="#ffd700" stroke-width="2.5" stroke-linecap="round" opacity="0.9"/>
  <line x1="105" y1="68" x2="122" y2="68" stroke="#ffd700" stroke-width="2.5" stroke-linecap="round" opacity="0.9"/>
  <line x1="105" y1="86" x2="122" y2="88" stroke="#ffd700" stroke-width="2.5" stroke-linecap="round" opacity="0.9"/>
  <line x1="100" y1="100" x2="118" y2="110" stroke="#ffd700" stroke-width="2.5" stroke-linecap="round" opacity="0.9"/>
  <!-- Flash burst star -->
  <circle cx="108" cy="68" r="6" fill="#ffd700" opacity="0.3"/>
  <!-- Label -->
  <text x="72" y="124" text-anchor="middle" font-family="Arial, Helvetica, sans-serif" font-size="11" fill="#ffd700" opacity="0.9">FLASH</text>
</svg>