<svg xmlns="http://www.w3.org/2000/svg" viewBox="0 0 144 144" width="144" height="144">
  <defs>
    <radialGradient id="bg" cx="50%" cy="40%" r="70%">
      <stop offset="0%" stop-color="#32373C"/>
      <stop offset="100%" stop-color="#0a0a0f"/>
    </radialGradient>
    <radialGradient id="greenGlow" cx="50%" cy="45%" r="40%">
      <stop offset="0%" stop-color="#4CAF50" stop-opacity="0.2"/>
      <stop offset="100%" stop-color="#4CAF50" stop-opacity="0"/>
    </radialGradient>
    <linearGradient id="boltGrad" x1="0" y1="0" x2="0" y2="1">
      <stop offset="0%" stop-color="#81C784"/>
      <stop offset="100%" stop-color="#4CAF50"/>
    </linearGradient>
    <linearGradient id="arrowUp" x1="0" y1="1" x2="0" y2="0">
      <stop offset="0%" stop-color="#4CAF50"/>
      <stop offset="100%" stop-color="#81C784"/>
    </linearGradient>
    <filter id="glow" x="-30%" y="-30%" width="160%" height="160%">
      <feGaussianBlur in="SourceGraphic" stdDeviation="2.5" result="blur"/>
      <feMerge><feMergeNode in="blur"/><feMergeNode in="SourceGraphic"/></feMerge>
    </filter>
    <filter id="shadow" x="-10%" y="-10%" width="130%" height="130%">
      <feDropShadow dx="0" dy="2" stdDeviation="2" flood-color="#4CAF50" flood-opacity="0.2"/>
    </filter>
    <linearGradient id="borderAccent" x1="0" y1="0" x2="1" y2="0">
      <stop offset="0%" stop-color="#4CAF50" stop-opacity="0"/>
      <stop offset="50%" stop-color="#4CAF50" stop-opacity="0.8"/>
      <stop offset="100%" stop-color="#4CAF50" stop-opacity="0"/>
    </linearGradient>
  </defs>
  <rect width="144" height="144" fill="url(#bg)"/>
  <ellipse cx="72" cy="56" rx="46" ry="42" fill="url(#greenGlow)"/>
  <!-- Lightning bolt -->
  <g filter="url(#shadow)">
    <polygon points="76,28 58,66 70,66 62,100 94,56 80,56 92,28" fill="url(#boltGrad)"/>
  </g>
  <!-- Up arrow on right -->
  <g filter="url(#glow)">
    <path d="M116 36 L126 50 L120 50 L120 62 L112 62 L112 50 L106 50 Z" fill="url(#arrowUp)"/>
  </g>
  <!-- + indicator -->
  <g opacity="0.5">
    <line x1="116" y1="68" x2="116" y2="78" stroke="#81C784" stroke-width="2" stroke-linecap="round"/>
    <line x1="111" y1="73" x2="121" y2="73" stroke="#81C784" stroke-width="2" stroke-linecap="round"/>
  </g>
  <rect x="20" y="138" width="104" height="2" rx="1" fill="url(#borderAccent)"/>
  <text x="72" y="132" text-anchor="middle" font-family="'Segoe UI', Arial, sans-serif" font-size="15" font-weight="700" fill="#ffffff" opacity="0.85" letter-spacing="1">MOTOR UP</text>
</svg>