<svg xmlns="http://www.w3.org/2000/svg" viewBox="0 0 144 144" width="144" height="144">
  <defs>
    <radialGradient id="bg" cx="50%" cy="40%" r="70%">
      <stop offset="0%" stop-color="#32373C"/>
      <stop offset="100%" stop-color="#0a0a0f"/>
    </radialGradient>
    <radialGradient id="blueGlow" cx="50%" cy="42%" r="38%">
      <stop offset="0%" stop-color="#4a9eff" stop-opacity="0.2"/>
      <stop offset="100%" stop-color="#4a9eff" stop-opacity="0"/>
    </radialGradient>
    <linearGradient id="hudGrad" x1="0" y1="0" x2="0" y2="1">
      <stop offset="0%" stop-color="#72b4ff"/>
      <stop offset="100%" stop-color="#4a9eff"/>
    </linearGradient>
    <linearGradient id="screenBg" x1="0" y1="0" x2="0" y2="1">
      <stop offset="0%" stop-color="#1a1a2e"/>
      <stop offset="100%" stop-color="#12121f"/>
    </linearGradient>
    <filter id="glow" x="-30%" y="-30%" width="160%" height="160%">
      <feGaussianBlur in="SourceGraphic" stdDeviation="2.5" result="blur"/>
      <feMerge><feMergeNode in="blur"/><feMergeNode in="SourceGraphic"/></feMerge>
    </filter>
    <filter id="shadow" x="-10%" y="-10%" width="130%" height="130%">
      <feDropShadow dx="0" dy="2" stdDeviation="3" flood-color="#000" flood-opacity="0.5"/>
    </filter>
    <linearGradient id="borderAccent" x1="0" y1="0" x2="1" y2="0">
      <stop offset="0%" stop-color="#4a9eff" stop-opacity="0"/>
      <stop offset="50%" stop-color="#4a9eff" stop-opacity="0.8"/>
      <stop offset="100%" stop-color="#4a9eff" stop-opacity="0"/>
    </linearGradient>
  </defs>
  <rect width="144" height="144" fill="url(#bg)"/>
  <ellipse cx="72" cy="50" rx="48" ry="38" fill="url(#blueGlow)"/>
  <!-- Monitor -->
  <g filter="url(#shadow)">
    <rect x="28" y="24" width="88" height="58" rx="4" fill="none" stroke="url(#hudGrad)" stroke-width="2.5"/>
    <rect x="33" y="29" width="78" height="48" rx="2" fill="url(#screenBg)"/>
    <line x1="72" y1="82" x2="72" y2="92" stroke="url(#hudGrad)" stroke-width="3" stroke-linecap="round"/>
    <line x1="56" y1="92" x2="88" y2="92" stroke="url(#hudGrad)" stroke-width="3" stroke-linecap="round"/>
  </g>
  <!-- Eye icon on screen (toggle indicator) -->
  <g filter="url(#glow)">
    <path d="M48 53 Q72 36 96 53 Q72 70 48 53 Z" fill="none" stroke="#ffffff" stroke-width="2" stroke-linejoin="round"/>
    <circle cx="72" cy="53" r="8" fill="none" stroke="#ffffff" stroke-width="2"/>
    <circle cx="72" cy="53" r="3" fill="#ffffff" opacity="0.7"/>
    <!-- Toggle slash line -->
    <line x1="52" y1="68" x2="92" y2="38" stroke="#ffffff" stroke-width="2" stroke-linecap="round" opacity="0.5"/>
  </g>
  <rect x="20" y="138" width="104" height="2" rx="1" fill="url(#borderAccent)"/>
  <text x="72" y="132" text-anchor="middle" font-family="'Segoe UI', Arial, sans-serif" font-size="28" font-weight="700" fill="#ffffff" opacity="0.85" letter-spacing="1">HUD</text>
</svg>