<svg xmlns="http://www.w3.org/2000/svg" viewBox="0 0 144 144" width="144" height="144">
  <rect x="4" y="4" width="136" height="136" rx="12" fill="#212529" stroke="#e20613" stroke-width="2"/>
  <rect x="8" y="8" width="128" height="128" rx="10" fill="none" stroke="#2d3238" stroke-width="1"/>
  <!-- Up arrow -->
  <polygon points="72,16 84,28 78,28 78,34 66,34 66,28 60,28" fill="white"/>
  <!-- Brake disc outer ring -->
  <circle cx="72" cy="68" r="28" fill="none" stroke="#fff300" stroke-width="3"/>
  <!-- Disc shadow ring -->
  <circle cx="72" cy="69" r="28" fill="none" stroke="#bfb600" stroke-width="1" opacity="0.3"/>
  <!-- Hub center -->
  <circle cx="72" cy="68" r="8" fill="none" stroke="#999" stroke-width="1.5"/>
  <circle cx="72" cy="68" r="3" fill="#999" opacity="0.6"/>
  <!-- Ventilation slots (radial lines) -->
  <line x1="72" y1="44" x2="72" y2="52" stroke="#999" stroke-width="1.2"/>
  <line x1="72" y1="84" x2="72" y2="92" stroke="#999" stroke-width="1.2"/>
  <line x1="48" y1="68" x2="56" y2="68" stroke="#999" stroke-width="1.2"/>
  <line x1="88" y1="68" x2="96" y2="68" stroke="#999" stroke-width="1.2"/>
  <line x1="55" y1="51" x2="60" y2="56" stroke="#999" stroke-width="1.2"/>
  <line x1="84" y1="80" x2="89" y2="85" stroke="#999" stroke-width="1.2"/>
  <line x1="55" y1="85" x2="60" y2="80" stroke="#999" stroke-width="1.2"/>
  <line x1="84" y1="56" x2="89" y2="51" stroke="#999" stroke-width="1.2"/>
  <!-- ABS text overlay -->
  <!-- ABS text shadow -->
  <!-- Label -->

  <text x="72" y="126" text-anchor="middle" font-family="Arial,Helvetica,sans-serif" font-size="16" font-weight="bold" fill="white">ABS +</text>
</svg>