<svg xmlns="http://www.w3.org/2000/svg" viewBox="0 0 144 144" width="144" height="144">
  <rect x="4" y="4" width="136" height="136" rx="12" fill="#212529" stroke="#e20613" stroke-width="2"/>
  <rect x="8" y="8" width="128" height="128" rx="10" fill="none" stroke="#2d3238" stroke-width="1"/>
  <!-- Leaderboard panel background -->
  <rect x="22" y="24" width="100" height="88" rx="4" fill="#1a1e24" stroke="#3a3f47" stroke-width="1"/>
  <!-- Header bar -->
  <rect x="22" y="24" width="100" height="14" rx="4" fill="#2d3238"/>
  <!-- Row 1 - Gold #1 -->
  <rect x="26" y="42" width="92" height="20" rx="2" fill="#fff300" opacity="0.08"/>
  <line x1="46" y1="46" x2="46" y2="58" stroke="#3a3f47" stroke-width="0.5"/>
  <rect x="50" y="48" width="42" height="6" rx="2" fill="#fff300" opacity="0.6"/>
  <!-- Row 2 - Silver #2 -->
  <rect x="26" y="64" width="92" height="20" rx="2" fill="#c0c0c0" opacity="0.06"/>
  <line x1="46" y1="68" x2="46" y2="80" stroke="#3a3f47" stroke-width="0.5"/>
  <rect x="50" y="70" width="36" height="6" rx="2" fill="#c0c0c0" opacity="0.5"/>
  <!-- Row 3 - Bronze #3 -->
  <rect x="26" y="86" width="92" height="20" rx="2" fill="#cd7f32" opacity="0.06"/>
  <line x1="46" y1="90" x2="46" y2="102" stroke="#3a3f47" stroke-width="0.5"/>
  <rect x="50" y="92" width="30" height="6" rx="2" fill="#cd7f32" opacity="0.4"/>

  <text x="72" y="126" text-anchor="middle" font-family="Arial,Helvetica,sans-serif" font-size="16" font-weight="bold" fill="white">LEADERBOARD</text>
</svg>