<svg xmlns="http://www.w3.org/2000/svg" viewBox="0 0 144 144" width="144" height="144">
  <defs>
    <radialGradient id="cb-fc-bg" cx="50%" cy="50%" r="70%">
      <stop offset="0%" stop-color="#252525"/>
      <stop offset="100%" stop-color="#0c0c0c"/>
    </radialGradient>
    <pattern id="cb-fc-cf" width="8" height="8" patternUnits="userSpaceOnUse">
      <rect width="4" height="4" fill="#1a1a1a"/>
      <rect x="4" width="4" height="4" fill="#1f1f1f"/>
      <rect y="4" width="4" height="4" fill="#1f1f1f"/>
      <rect x="4" y="4" width="4" height="4" fill="#1a1a1a"/>
    </pattern>
    <linearGradient id="cb-fc-red" x1="0" y1="0" x2="1" y2="0">
      <stop offset="0%" stop-color="#ff1a1a"/>
      <stop offset="50%" stop-color="#cc0000"/>
      <stop offset="100%" stop-color="#ff1a1a"/>
    </linearGradient>
    <linearGradient id="cb-fc-chrome" x1="0" y1="0" x2="0" y2="1">
      <stop offset="0%" stop-color="#e0e0e0"/>
      <stop offset="25%" stop-color="#ffffff"/>
      <stop offset="50%" stop-color="#a0a0a0"/>
      <stop offset="75%" stop-color="#d0d0d0"/>
      <stop offset="100%" stop-color="#707070"/>
    </linearGradient>
    <linearGradient id="cb-fc-label" x1="0" y1="0" x2="0" y2="1">
      <stop offset="0%" stop-color="#ffffff"/>
      <stop offset="100%" stop-color="#999999"/>
    </linearGradient>
    <filter id="cb-fc-shadow">
      <feDropShadow dx="0" dy="1" stdDeviation="2" flood-color="#000" flood-opacity="0.6"/>
    </filter>
    <filter id="cb-fc-glow">
      <feGaussianBlur stdDeviation="4" result="blur"/>
      <feComposite in="SourceGraphic" in2="blur" operator="over"/>
    </filter>
  </defs>
  <rect width="144" height="144" fill="url(#cb-fc-bg)" rx="12"/>
  <rect width="144" height="144" fill="url(#cb-fc-cf)" rx="12" opacity="0.3"/>
  <rect x="0" y="0" width="144" height="3" fill="url(#cb-fc-red)"/>
  <rect x="0" y="141" width="144" height="3" fill="url(#cb-fc-red)"/>
  <g filter="url(#cb-fc-shadow)">
    <rect x="42" y="44" width="50" height="34" rx="4" fill="none" stroke="url(#cb-fc-chrome)" stroke-width="2.5"/>
    <circle cx="67" cy="61" r="10" fill="none" stroke="url(#cb-fc-chrome)" stroke-width="2"/>
    <polygon points="92,50 106,44 106,72 92,66" fill="url(#cb-fc-chrome)" opacity="0.8"/>
  </g>
  <g opacity="0.5" filter="url(#cb-fc-glow)">
    <line x1="30" y1="40" x2="30" y2="50" stroke="#4a9eff" stroke-width="2"/>
    <line x1="25" y1="45" x2="35" y2="45" stroke="#4a9eff" stroke-width="2"/>
    <line x1="114" y1="40" x2="114" y2="50" stroke="#4a9eff" stroke-width="2"/>
    <line x1="109" y1="45" x2="119" y2="45" stroke="#4a9eff" stroke-width="2"/>
    <line x1="30" y1="72" x2="30" y2="82" stroke="#4a9eff" stroke-width="2"/>
    <line x1="25" y1="77" x2="35" y2="77" stroke="#4a9eff" stroke-width="2"/>
    <line x1="114" y1="72" x2="114" y2="82" stroke="#4a9eff" stroke-width="2"/>
    <line x1="109" y1="77" x2="119" y2="77" stroke="#4a9eff" stroke-width="2"/>
  </g>
  <text x="72" y="108" text-anchor="middle" font-family="Arial,Helvetica,sans-serif" font-size="13" font-weight="bold" fill="url(#cb-fc-label)" letter-spacing="2">FREE CAM</text>
</svg>