<svg xmlns="http://www.w3.org/2000/svg" viewBox="0 0 144 144" width="144" height="144">
  <defs>
    <radialGradient id="cb-pc-bg" cx="50%" cy="50%" r="70%">
      <stop offset="0%" stop-color="#252525"/>
      <stop offset="100%" stop-color="#0c0c0c"/>
    </radialGradient>
    <pattern id="cb-pc-cf" width="8" height="8" patternUnits="userSpaceOnUse">
      <rect width="4" height="4" fill="#1a1a1a"/>
      <rect x="4" width="4" height="4" fill="#1f1f1f"/>
      <rect y="4" width="4" height="4" fill="#1f1f1f"/>
      <rect x="4" y="4" width="4" height="4" fill="#1a1a1a"/>
    </pattern>
    <linearGradient id="cb-pc-red" x1="0" y1="0" x2="1" y2="0">
      <stop offset="0%" stop-color="#ff1a1a"/>
      <stop offset="50%" stop-color="#cc0000"/>
      <stop offset="100%" stop-color="#ff1a1a"/>
    </linearGradient>
    <linearGradient id="cb-pc-chrome" x1="0" y1="0" x2="0" y2="1">
      <stop offset="0%" stop-color="#e0e0e0"/>
      <stop offset="25%" stop-color="#ffffff"/>
      <stop offset="50%" stop-color="#a0a0a0"/>
      <stop offset="75%" stop-color="#d0d0d0"/>
      <stop offset="100%" stop-color="#707070"/>
    </linearGradient>
    <linearGradient id="cb-pc-label" x1="0" y1="0" x2="0" y2="1">
      <stop offset="0%" stop-color="#ffffff"/>
      <stop offset="100%" stop-color="#999999"/>
    </linearGradient>
    <filter id="cb-pc-shadow">
      <feDropShadow dx="0" dy="1" stdDeviation="2" flood-color="#000" flood-opacity="0.6"/>
    </filter>
    <filter id="cb-pc-glow">
      <feGaussianBlur stdDeviation="4" result="blur"/>
      <feComposite in="SourceGraphic" in2="blur" operator="over"/>
    </filter>
  </defs>
  <rect width="144" height="144" fill="url(#cb-pc-bg)" rx="12"/>
  <rect width="144" height="144" fill="url(#cb-pc-cf)" rx="12" opacity="0.3"/>
  <rect x="0" y="0" width="144" height="3" fill="url(#cb-pc-red)"/>
  <rect x="0" y="141" width="144" height="3" fill="url(#cb-pc-red)"/>
  <!-- Car silhouette -->
  <g filter="url(#cb-pc-shadow)">
    <rect x="64" y="48" width="44" height="14" rx="5" fill="url(#cb-pc-chrome)" opacity="0.6"/>
    <rect x="58" y="56" width="56" height="16" rx="3" fill="url(#cb-pc-chrome)" opacity="0.7"/>
    <circle cx="70" cy="74" r="5" fill="url(#cb-pc-chrome)" opacity="0.5"/>
    <circle cx="102" cy="74" r="5" fill="url(#cb-pc-chrome)" opacity="0.5"/>
  </g>
  <!-- Back arrow -->
  <g opacity="0.5" filter="url(#cb-pc-glow)">
    <polyline points="44,50 30,62 44,74" fill="none" stroke="#4a9eff" stroke-width="3.5" stroke-linecap="round" stroke-linejoin="round"/>
  </g>
  <polyline points="44,50 30,62 44,74" fill="none" stroke="#4a9eff" stroke-width="2.5" stroke-linecap="round" stroke-linejoin="round"/>
  <text x="72" y="108" text-anchor="middle" font-family="Arial,Helvetica,sans-serif" font-size="13" font-weight="bold" fill="url(#cb-pc-label)" letter-spacing="2">PREV CAR</text>
</svg>