<svg xmlns="http://www.w3.org/2000/svg" viewBox="0 0 144 144" width="144" height="144">
  <defs>
    <radialGradient id="cb-rw-bg" cx="50%" cy="50%" r="70%">
      <stop offset="0%" stop-color="#252525"/>
      <stop offset="100%" stop-color="#0c0c0c"/>
    </radialGradient>
    <pattern id="cb-rw-cf" width="8" height="8" patternUnits="userSpaceOnUse">
      <rect width="4" height="4" fill="#1a1a1a"/>
      <rect x="4" width="4" height="4" fill="#1f1f1f"/>
      <rect y="4" width="4" height="4" fill="#1f1f1f"/>
      <rect x="4" y="4" width="4" height="4" fill="#1a1a1a"/>
    </pattern>
    <linearGradient id="cb-rw-red" x1="0" y1="0" x2="1" y2="0">
      <stop offset="0%" stop-color="#ff1a1a"/>
      <stop offset="50%" stop-color="#cc0000"/>
      <stop offset="100%" stop-color="#ff1a1a"/>
    </linearGradient>
    <linearGradient id="cb-rw-chrome" x1="0" y1="0" x2="0" y2="1">
      <stop offset="0%" stop-color="#e0e0e0"/>
      <stop offset="25%" stop-color="#ffffff"/>
      <stop offset="50%" stop-color="#a0a0a0"/>
      <stop offset="75%" stop-color="#d0d0d0"/>
      <stop offset="100%" stop-color="#707070"/>
    </linearGradient>
    <linearGradient id="cb-rw-label" x1="0" y1="0" x2="0" y2="1">
      <stop offset="0%" stop-color="#ffffff"/>
      <stop offset="100%" stop-color="#999999"/>
    </linearGradient>
    <filter id="cb-rw-shadow">
      <feDropShadow dx="0" dy="1" stdDeviation="2" flood-color="#000" flood-opacity="0.6"/>
    </filter>
    <filter id="cb-rw-glow">
      <feGaussianBlur stdDeviation="4" result="blur"/>
      <feComposite in="SourceGraphic" in2="blur" operator="over"/>
    </filter>
  </defs>
  <rect width="144" height="144" fill="url(#cb-rw-bg)" rx="12"/>
  <rect width="144" height="144" fill="url(#cb-rw-cf)" rx="12" opacity="0.3"/>
  <rect x="0" y="0" width="144" height="3" fill="url(#cb-rw-red)"/>
  <rect x="0" y="141" width="144" height="3" fill="url(#cb-rw-red)"/>
  <!-- Double rewind arrows -->
  <g filter="url(#cb-rw-shadow)">
    <polygon points="100,40 100,76 72,58" fill="url(#cb-rw-chrome)" opacity="0.8"/>
    <polygon points="72,40 72,76 44,58" fill="url(#cb-rw-chrome)" opacity="0.8"/>
  </g>
  <g opacity="0.4" filter="url(#cb-rw-glow)">
    <polygon points="100,40 100,76 72,58" fill="#4a9eff"/>
    <polygon points="72,40 72,76 44,58" fill="#4a9eff"/>
  </g>
  <text x="72" y="108" text-anchor="middle" font-family="Arial,Helvetica,sans-serif" font-size="13" font-weight="bold" fill="url(#cb-rw-label)" letter-spacing="2">REWIND</text>
</svg>